<mxfile host="app.diagrams.net" agent="Mozilla/5.0 (Windows NT 10.0; Win64; x64) AppleWebKit/537.36 (KHTML, like Gecko) Chrome/129.0.0.0 Safari/537.36" version="24.7.17">
  <diagram name="Page-1" id="hKzQLRUIS9wekjyLAERz">
    <mxGraphModel dx="794" dy="446" grid="1" gridSize="10" guides="1" tooltips="1" connect="1" arrows="1" fold="1" page="1" pageScale="1" pageWidth="850" pageHeight="1100" math="0" shadow="0">
      <root>
        <mxCell id="0" />
        <mxCell id="1" parent="0" />
        <mxCell id="5TWhnI7rDcrY7k_qI60q-4" style="edgeStyle=orthogonalEdgeStyle;rounded=0;orthogonalLoop=1;jettySize=auto;html=1;" edge="1" parent="1" source="5TWhnI7rDcrY7k_qI60q-3" target="5TWhnI7rDcrY7k_qI60q-6">
          <mxGeometry relative="1" as="geometry">
            <mxPoint x="400" y="190" as="targetPoint" />
          </mxGeometry>
        </mxCell>
        <mxCell id="5TWhnI7rDcrY7k_qI60q-3" value="Anggota" style="rounded=0;whiteSpace=wrap;html=1;" vertex="1" parent="1">
          <mxGeometry x="220" y="130" width="120" height="60" as="geometry" />
        </mxCell>
        <mxCell id="5TWhnI7rDcrY7k_qI60q-5" value="Admin" style="rounded=0;whiteSpace=wrap;html=1;" vertex="1" parent="1">
          <mxGeometry x="760" y="310" width="120" height="60" as="geometry" />
        </mxCell>
        <mxCell id="5TWhnI7rDcrY7k_qI60q-12" style="edgeStyle=orthogonalEdgeStyle;rounded=0;orthogonalLoop=1;jettySize=auto;html=1;entryX=0;entryY=0.5;entryDx=0;entryDy=0;" edge="1" parent="1" source="5TWhnI7rDcrY7k_qI60q-6" target="5TWhnI7rDcrY7k_qI60q-10">
          <mxGeometry relative="1" as="geometry" />
        </mxCell>
        <mxCell id="5TWhnI7rDcrY7k_qI60q-13" style="edgeStyle=orthogonalEdgeStyle;rounded=0;orthogonalLoop=1;jettySize=auto;html=1;entryX=1;entryY=0.75;entryDx=0;entryDy=0;" edge="1" parent="1" source="5TWhnI7rDcrY7k_qI60q-6" target="5TWhnI7rDcrY7k_qI60q-3">
          <mxGeometry relative="1" as="geometry" />
        </mxCell>
        <mxCell id="5TWhnI7rDcrY7k_qI60q-6" value="Peminjaman Buku" style="ellipse;whiteSpace=wrap;html=1;" vertex="1" parent="1">
          <mxGeometry x="390" y="200" width="120" height="80" as="geometry" />
        </mxCell>
        <mxCell id="5TWhnI7rDcrY7k_qI60q-16" style="edgeStyle=orthogonalEdgeStyle;rounded=0;orthogonalLoop=1;jettySize=auto;html=1;" edge="1" parent="1" source="5TWhnI7rDcrY7k_qI60q-9" target="5TWhnI7rDcrY7k_qI60q-10">
          <mxGeometry relative="1" as="geometry" />
        </mxCell>
        <mxCell id="5TWhnI7rDcrY7k_qI60q-9" value="Pengelolaan Buku" style="ellipse;whiteSpace=wrap;html=1;" vertex="1" parent="1">
          <mxGeometry x="560" y="250" width="120" height="80" as="geometry" />
        </mxCell>
        <mxCell id="5TWhnI7rDcrY7k_qI60q-10" value="Database Buku" style="shape=parallelogram;perimeter=parallelogramPerimeter;whiteSpace=wrap;html=1;fixedSize=1;" vertex="1" parent="1">
          <mxGeometry x="560" y="160" width="120" height="60" as="geometry" />
        </mxCell>
        <mxCell id="5TWhnI7rDcrY7k_qI60q-15" style="edgeStyle=orthogonalEdgeStyle;rounded=0;orthogonalLoop=1;jettySize=auto;html=1;entryX=0.972;entryY=0.35;entryDx=0;entryDy=0;entryPerimeter=0;" edge="1" parent="1" source="5TWhnI7rDcrY7k_qI60q-5" target="5TWhnI7rDcrY7k_qI60q-9">
          <mxGeometry relative="1" as="geometry" />
        </mxCell>
      </root>
    </mxGraphModel>
  </diagram>
</mxfile>
